<svg height="105" viewBox="0 0 105 105" width="105" xmlns="http://www.w3.org/2000/svg" xmlns:xlink="http://www.w3.org/1999/xlink"><linearGradient id="a" gradientUnits="userSpaceOnUse" x1="55.31" x2="36.81" y1="80.8" y2="11.94"><stop offset=".05" stop-color="#6b57ff"/><stop offset=".12" stop-color="#7556fe"/><stop offset=".24" stop-color="#8f53fb"/><stop offset=".4" stop-color="#ba4df5"/><stop offset=".58" stop-color="#f446ee"/><stop offset=".61" stop-color="#ff45ed"/><stop offset=".69" stop-color="#ff3bbe"/><stop offset=".77" stop-color="#ff318c"/><stop offset=".99" stop-color="#fc801d"/></linearGradient><linearGradient id="b" gradientUnits="userSpaceOnUse" x1="97.51" x2="61.4" y1="71.42" y2="59.53"><stop offset=".03" stop-color="#6b57ff"/><stop offset=".39" stop-color="#ff45ed"/><stop offset=".49" stop-color="#ff4dd1"/><stop offset=".7" stop-color="#fe6189"/><stop offset="1" stop-color="#fc801d"/></linearGradient><path d="m63.2 4.5-58.7 6.61v30.18l14.72 49 73.81-18.71z" fill="url(#a)"/><path d="m94.94 34.96-23.13-11.08-32.45 58.42 8.82 11.96 22.48 6.24 21.64-13.65 8.2-25.7z" fill="url(#b)"/><path d="m22.5 22.5h60v60h-60z"/><g fill="#fff"><path d="m29.98 71.16h22.5v3.75h-22.5z"/><path d="m30 29.92h8.8c7.09 0 12 4.87 12 11.22v.07c0 6.35-4.9 11.28-12 11.28h-8.8zm5 4.48v13.6h3.84a6.43 6.43 0 0 0 6.8-6.74v-.06a6.49 6.49 0 0 0 -6.8-6.81z"/><path d="m53.15 41.37v-.06a11.53 11.53 0 0 1 11.85-11.73 11.72 11.72 0 0 1 8.94 3.49l-3.18 3.67a8.36 8.36 0 0 0 -5.8-2.56c-3.82 0-6.57 3.17-6.57 7.06v.07c0 3.89 2.68 7.13 6.57 7.13 2.6 0 4.18-1 6-2.66l3.12 3.22a11.6 11.6 0 0 1 -9.3 4 11.45 11.45 0 0 1 -11.63-11.63"/></g></svg>