<svg height="105" viewBox="0 0 105 105" width="105" xmlns="http://www.w3.org/2000/svg" xmlns:xlink="http://www.w3.org/1999/xlink"><linearGradient id="a" gradientUnits="userSpaceOnUse" x1="14.16" x2="60.26" y1="53.51" y2="100.57"><stop offset=".1" stop-color="#ff45ed"/><stop offset=".11" stop-color="#f846ee"/><stop offset=".28" stop-color="#ac4ff7"/><stop offset=".41" stop-color="#7d55fd"/><stop offset=".47" stop-color="#6b57ff"/><stop offset=".48" stop-color="#655dfe"/><stop offset=".57" stop-color="#4482fa"/><stop offset=".66" stop-color="#299ef6"/><stop offset=".76" stop-color="#16b3f4"/><stop offset=".85" stop-color="#0bbff2"/><stop offset=".94" stop-color="#07c3f2"/></linearGradient><linearGradient id="b" gradientUnits="userSpaceOnUse" x1="17.62" x2="51.28" y1="80.94" y2="52.89"><stop offset=".04" stop-color="#ff45ed"/><stop offset=".05" stop-color="#fe45ed"/><stop offset=".2" stop-color="#d14bf3"/><stop offset=".36" stop-color="#ac4ff7"/><stop offset=".51" stop-color="#9053fb"/><stop offset=".67" stop-color="#7b55fd"/><stop offset=".82" stop-color="#6f57ff"/><stop offset=".97" stop-color="#6b57ff"/></linearGradient><linearGradient id="c" gradientUnits="userSpaceOnUse" x1="59.16" x2="81.79" y1="27.59" y2="73.84"><stop offset=".2" stop-color="#ff45ed"/><stop offset=".29" stop-color="#f646ee"/><stop offset=".43" stop-color="#dd49f1"/><stop offset=".61" stop-color="#b64ef6"/><stop offset=".82" stop-color="#7f55fd"/><stop offset=".89" stop-color="#6b57ff"/></linearGradient><linearGradient id="d" gradientUnits="userSpaceOnUse" x1="31.76" x2="88.61" y1="29.48" y2="15.7"><stop offset=".1" stop-color="#ff45ed"/><stop offset=".17" stop-color="#f64aed"/><stop offset=".29" stop-color="#dd56ee"/><stop offset=".44" stop-color="#b56aee"/><stop offset=".62" stop-color="#7e87f0"/><stop offset=".81" stop-color="#38aaf1"/><stop offset=".94" stop-color="#07c3f2"/></linearGradient><path d="m69.91 73.42-65.41-13.08 19.32 40.04 48.25-8.41z" fill="url(#a)"/><path d="m100.5 47.34-26.5-27.32-69.5 14.65v25.67l85.86 17.16z" fill="url(#b)"/><path d="m100.5 47.34-41.67-42.96-32.65 9.88 10.69 32.52 53.49 30.72z" fill="url(#c)"/><path d="m93.01 31.22-3.78-26.84h-14.32-16.08l-32.65 9.88 10.69 32.52z" fill="url(#d)"/><path d="m22.5 22.5h60v60h-60z"/><g fill="#fff"><path d="m29.98 71.16h22.5v3.75h-22.5z"/><path d="m30 29.92h8.8c7.09 0 12 4.87 12 11.22v.07c0 6.35-4.9 11.28-12 11.28h-8.8zm5 4.48v13.6h3.84a6.43 6.43 0 0 0 6.8-6.74v-.06a6.49 6.49 0 0 0 -6.8-6.81z"/><path d="m54.42 29.92h9.25c5.4 0 8.66 3.2 8.66 7.83v.06c0 5.24-4.07 8-9.15 8h-3.78v6.79h-5zm8.92 11.42c2.49 0 4-1.49 4-3.43v-.07c0-2.23-1.55-3.42-4-3.42h-3.94v6.92z"/></g></svg>