<svg height="105" viewBox="0 0 105 105" width="105" xmlns="http://www.w3.org/2000/svg" xmlns:xlink="http://www.w3.org/1999/xlink"><linearGradient id="a" gradientUnits="userSpaceOnUse" x1="2.67" x2="96.44" y1="64.48" y2="40.29"><stop offset=".12" stop-color="#6b57ff"/><stop offset=".54" stop-color="#ff45ed"/><stop offset=".85" stop-color="#dd1265"/></linearGradient><linearGradient id="b" gradientUnits="userSpaceOnUse" x1="67.47" x2="97.29" y1="57.86" y2="16.98"><stop offset=".19" stop-color="#dd1265"/><stop offset=".29" stop-color="#de146a"/><stop offset=".41" stop-color="#e21977"/><stop offset=".53" stop-color="#e7218e"/><stop offset=".66" stop-color="#ef2dad"/><stop offset=".79" stop-color="#f93cd5"/><stop offset=".85" stop-color="#ff45ed"/></linearGradient><path d="m96.81 26.48-32.31-21.98-60 42.61 15.2 53.39 65.58-13.3z" fill="url(#a)"/><path d="m96.81 26.48-32.31-21.98-7.95 21.56v43.95h43.95z" fill="url(#b)"/><path d="m22.5 22.5h60v60h-60z"/><g fill="#fff"><path d="m29.98 71.16h22.5v3.75h-22.5z"/><path d="m30 29.92h8.8c7.09 0 12 4.87 12 11.22v.07c0 6.35-4.9 11.28-12 11.28h-8.8zm5 4.48v13.6h3.84a6.43 6.43 0 0 0 6.8-6.74v-.06a6.49 6.49 0 0 0 -6.8-6.81z"/><path d="m60.09 34.47h-6.87v-4.58h18.71v4.59l-6.87-.01v18.01h-4.97z"/></g></svg>