<svg height="105" viewBox="0 0 105 105" width="105" xmlns="http://www.w3.org/2000/svg" xmlns:xlink="http://www.w3.org/1999/xlink"><linearGradient id="a" gradientUnits="userSpaceOnUse" x1="51.74" x2="93.14" y1="100.56" y2="40.23"><stop offset=".02" stop-color="#ff45ed"/><stop offset=".4" stop-color="#dd1265"/><stop offset="1" stop-color="#fdb60d"/></linearGradient><linearGradient id="b" gradientUnits="userSpaceOnUse" x1="7.01" x2="71.46" y1="77.63" y2="17.01"><stop offset=".02" stop-color="#ff45ed"/><stop offset=".66" stop-color="#dd1265"/></linearGradient><linearGradient id="c" gradientUnits="userSpaceOnUse" x1="69.78" x2="70.44" y1="2.09" y2="40.18"><stop offset="0" stop-color="#dd1265"/><stop offset=".06" stop-color="#df1961"/><stop offset=".7" stop-color="#f46330"/><stop offset="1" stop-color="#fc801d"/></linearGradient><path d="m74.71 25.92-34.03 43-7.68 31.44h51.66l15.84-64.37z" fill="url(#a)"/><path d="m71.68 4.36h-51.25l-15.93 64.56h76.26z" fill="url(#b)"/><path d="m74.35 22.62-2.67-18.26-5.76 18.26z" fill="url(#c)"/><path d="m22.5 22.5h60v60h-60z"/><g fill="#fff"><path d="m29.98 71.16h22.5v3.75h-22.5z"/><path d="m54.54 47.68h-2.45v-4.12h3.16l.8-4.78h-2.83v-4.13h3.54l.81-4.71h4.26l-.83 4.71h4.7l.81-4.7h4.25l-.8 4.7h2.45v4.13h-3.16l-.81 4.78h2.84v4.12h-3.55l-.84 4.84h-4.25l.83-4.84h-4.67l-.8 4.84h-4.3zm9.64-4.12.82-4.78h-4.69l-.8 4.78z"/><path d="m30 29.94h10.34a8.94 8.94 0 0 1 6.58 2.29 7 7 0 0 1 1.93 5.16v.06a7 7 0 0 1 -1.34 4.47 7.74 7.74 0 0 1 -3.51 2.53l5.51 8.06h-5.8l-4.67-6.93h-4.04v6.93h-5zm10 11a4.14 4.14 0 0 0 2.84-.94 3 3 0 0 0 1-2.32v-.06a2.87 2.87 0 0 0 -1-2.42 4.54 4.54 0 0 0 -2.87-.81h-4.97v6.51z"/></g></svg>