<svg height="105" viewBox="0 0 105 105" width="105" xmlns="http://www.w3.org/2000/svg" xmlns:xlink="http://www.w3.org/1999/xlink"><linearGradient id="a" gradientUnits="userSpaceOnUse" x1="11.53" x2="40.6" y1="28.11" y2="101.64"><stop offset=".22" stop-color="#dd1265"/><stop offset=".74" stop-color="#ff45ed"/><stop offset="1" stop-color="#fdb60d"/></linearGradient><linearGradient id="b" gradientTransform="matrix(-1 0 0 1 6058.84 0)" gradientUnits="userSpaceOnUse" x1="5982.64" x2="6053.73" y1="104.89" y2="29.27"><stop offset=".11" stop-color="#fdb60d"/><stop offset=".51" stop-color="#ff45ed"/><stop offset=".76" stop-color="#ff45ed"/><stop offset="1" stop-color="#fdb60d"/></linearGradient><linearGradient id="c" gradientUnits="userSpaceOnUse" x1="39.47" x2="100.45" y1="1.73" y2="74.55"><stop offset=".18" stop-color="#fdb60d"/><stop offset=".49" stop-color="#ff45ed"/><stop offset=".82" stop-color="#dd1265"/></linearGradient><path d="m30.41 25.89-2.82 50.25-7.25 24.24-15.84-64.37z" fill="url(#a)"/><path d="m30.41 25.89 2.91-21.51 38.68 96h-51.66l7.25-24.24z" fill="url(#b)"/><path d="m52.85 68.93h47.65l-15.93-64.55h-51.25z" fill="url(#c)"/><path d="m22.5 22.5h60v60h-60z"/><g fill="#fff"><path d="m29.98 71.16h22.5v3.75h-22.5z"/><path d="m30 29.94h10.28a8.91 8.91 0 0 1 6.57 2.29 7 7 0 0 1 1.94 5.16v.07a7.09 7.09 0 0 1 -1.34 4.46 7.76 7.76 0 0 1 -3.45 2.53l5.51 8.06h-5.8l-4.71-6.93h-4.1v6.93h-4.9zm10 11a4.15 4.15 0 0 0 2.78-.94 3 3 0 0 0 1-2.32v-.06a2.9 2.9 0 0 0 -1-2.42 4.55 4.55 0 0 0 -2.87-.8h-4.99v6.5z"/><path d="m65.16 37.39h-5.16v-4.55h5.12v-5.08h4.68v5.08h5.2v4.55h-5.16v5.08h-4.68z"/><path d="m55.37 49.7h-5.11v-4.55h5.11v-5.08h4.68v5.08h5.11v4.55h-5.11v5.08h-4.68z"/></g></svg>