<svg height="105" viewBox="0 0 105 105" width="105" xmlns="http://www.w3.org/2000/svg" xmlns:xlink="http://www.w3.org/1999/xlink"><linearGradient id="a" gradientUnits="userSpaceOnUse" x1="96.93" x2="29.22" y1="19.48" y2="28.5"><stop offset="0" stop-color="#fc801d"/><stop offset="1" stop-color="#6b57ff"/></linearGradient><linearGradient id="b" gradientUnits="userSpaceOnUse" x1="51.93" x2="57.71" y1="55.98" y2="31.54"><stop offset="0" stop-color="#07c3f2"/><stop offset="1" stop-color="#6b57ff"/></linearGradient><linearGradient id="c" gradientUnits="userSpaceOnUse" x1="85.48" x2="15.24" y1="20.03" y2="64.84"><stop offset="0" stop-color="#fc801d"/><stop offset=".92" stop-color="#6b57ff"/></linearGradient><linearGradient id="d" x1="93.85" x2="18.88" xlink:href="#b" y1="83.74" y2="56.65"/><path d="m85.47 37.89-64.31 6.9a15.23 15.23 0 0 1 -16.6-12.42 15.22 15.22 0 0 1 12.64-17.75l63.92-9.93a16.74 16.74 0 0 1 19.28 17.57 16.73 16.73 0 0 1 -14.93 15.63z" fill="url(#a)"/><path d="m61.7 93.84-52.93-53.48a15.24 15.24 0 0 1 1.34-22.64 15.22 15.22 0 0 1 18-.69l62.31 42.24a22.59 22.59 0 0 1 1.83 36 22.58 22.58 0 0 1 -30.55-1.43z" fill="url(#b)"/><path d="m73.66 7.78-61.84 46.22a11.81 11.81 0 0 0 -1.82 17.25 11.8 11.8 0 0 0 14.67 2.48l67.22-38a16.73 16.73 0 0 0 4.32-25.64 16.73 16.73 0 0 0 -22.55-2.31z" fill="url(#c)"/><path d="m68.5 98.57-54.5-24.48a11.73 11.73 0 0 1 -4.56-17.82 11.74 11.74 0 0 1 10-4.58l59.67 3.67a22.61 22.61 0 0 1 19.7 30.75 22.63 22.63 0 0 1 -30.31 12.46z" fill="url(#d)"/><path d="m22.5 22.5h60v60h-60z"/><g fill="#fff"><path d="m29.98 71.16h22.5v3.75h-22.5z"/><path d="m30 42.83v-12.92h5v12.79c0 3.68 1.84 5.58 4.88 5.58s4.87-1.84 4.87-5.42v-12.95h5v12.75c0 6.85-3.84 10.21-9.91 10.21s-9.84-3.39-9.84-10.04z"/><path d="m54.26 29.91h9.24c5.39 0 8.65 3.2 8.65 7.82v.06c0 5.23-4.07 7.94-9.14 7.94h-3.78v6.78h-5zm8.91 11.4c2.49 0 3.94-1.49 3.94-3.42v-.07c0-2.22-1.55-3.42-4-3.42h-3.88v6.91z"/></g></svg>