<svg height="105" viewBox="0 0 105 105" width="105" xmlns="http://www.w3.org/2000/svg" xmlns:xlink="http://www.w3.org/1999/xlink"><linearGradient id="a" gradientUnits="userSpaceOnUse" x1="82.95" x2="25.7" y1="69.19" y2="79.98"><stop offset="0" stop-color="#07c3f2"/><stop offset="1" stop-color="#6b57ff"/></linearGradient><linearGradient id="b" x1="80.99" x2="20.99" xlink:href="#a" y1="24.64" y2="83.98"/><linearGradient id="c" gradientUnits="userSpaceOnUse" x1="88.66" x2="24.48" y1="83.08" y2="24.07"><stop offset=".15" stop-color="#07c3f2"/><stop offset=".53" stop-color="#6b57ff"/><stop offset="1" stop-color="#ff318c"/></linearGradient><path d="m29 100.33 62.28-10.66a11.28 11.28 0 0 0 9.19-9 11.29 11.29 0 0 0 -9.47-13.32l-62.62-8.79a21.14 21.14 0 0 0 -23.95 18.56 21.13 21.13 0 0 0 24.57 23.21z" fill="url(#a)"/><path d="m70.78 9.08-59.56 54.92a21.1 21.1 0 0 0 1.24 32.08 21.1 21.1 0 0 0 28.54-2.26l55-59.52a17.85 17.85 0 0 0 -1.71-25.81 17.84 17.84 0 0 0 -23.51.59z" fill="url(#b)"/><path d="m82.68 87.59-70.59-50.75a17.91 17.91 0 0 1 -1.52-27.84 17.9 17.9 0 0 1 24.5.51l62.16 60.76a11.34 11.34 0 0 1 -.1 16.31 11.35 11.35 0 0 1 -14.45 1.01z" fill="url(#c)"/><path d="m22.5 22.5h60v60h-60z"/><g fill="#fff"><path d="m29.98 71.16h22.5v3.75h-22.5z"/><path d="m36.48 43.58-8.67-13.67h5.81l5.38 9.06 5.48-9.06h5.64l-8.67 13.58v8.99h-4.97z"/><path d="m60.05 34.49h-6.86v-4.58h18.69v4.58h-6.86v17.99h-4.97z"/></g></svg>